<svg xmlns="http://www.w3.org/2000/svg" viewBox="0 20 552 375" style='position:absolute;bottom:0;'>
    <g stroke='#fff' fill='#fff'>
        <path d="M264 336c-2 0-55-4-67-4-3 0-4 1-5 5-13 61 79 73 81 11 0-10 1-10-9-12zm-62 38c-5-23 45-12 58 5-29 19-57-1-58-5zm0-41c12 0 50 3 62 3-6 16-55 11-62-3zm55-35c10-7-1-11-5-41-2 19 2 36-5 46a36 36 0 0 0 10-4z"/>
        <path d="M553 413c-3-85-71-103-88-260-6-51-29-153-29-153L1 3v51c4-13 5-26 12-38C6 44 2 72 0 101c3-17 6-34 12-50-17 67-11 218 0 269 0 0-6-9-13-46-3 28 9 52 17 77 0 0-12-26-17-40v100h137c-16-22-50-79-61-144 22 76 70 144 70 144h6c-34-46-78-131-81-212l20 11c4-12 9-23 20-30-5 18-4 33 9 46-1-15 10-9 12-35a12 12 0 0 1 14-11c7 1 12 9 11 18-2 15 14 20 8 34 19-12 18-39 16-39-6 2-15 1-15-5 0-5 9-6 14-4a26 26 0 0 0-3-9c14 7 23 18 29 32 7-10 2-18-4-26l1-1 9 7c-9-13-21-22-35-26-8-3-16-6-24-8v5l-27-10 10 10c-8 4-14 1-22-1l5 8h-18l-1 1 7 4c-7 4-7 4-22 6l5 6c-6 2-10 3-15 4-3 1-4 0-4-4 0-23 18-41 18-41-3-25 0-53 4-80v38a178 178 0 0 0 3 38c6-4 21-11 21-11s-4-31 4-33c17-4 13 21 14 21s6-22 10-22c6 0 26 0 25 4-5 22-8 27-2 29s10 4 11 1c5-8 13-18 19-27-3 11-10 20-16 30 3 1 13 5 13 5 4-7 10-19 14-26 3-5 3-5 8-1l-14 29c9 3 16-1 21-9 6-8 31-77 38-113 2 43-5 84-13 126 3 1 15 2 15 2s29-85 29-84c-5 30-13 58-26 85 9 4 10 4 14-4 13-26 34-103 34-103a395 395 0 0 1-30 111c7 3 7 3 10-5 5-12 2-12 15-6 4 2 6 1 8-2 15-23 26-48 32-75 2-10 4-19 6-29-2 40-13 77-34 111 7 4 8 5 13-1 8-11 25-38 26-37-2 12-5 48-9 48s-52 9-70 31c35-16 60-22 68-21 0 2-1 12 3 14 11 7 35 20 35 27 0 10 1 20 1 29 0 1-12-9-18-14h4c-9-2-4-9-4-14l-15 6c-2 0 1-4 3-6-21 8-44 2-65 13 6-1 14-2 15-2l-18 15c15-7 56-12 80 3l-7-6c19 5 25 9 24 20-10 80-35 124-79 165h101c-6-26-12-51-18-75 1 1 23 75 23 75s60 1 62 0c-1-5-22-72-31-93 13 23 38 93 38 93h24c-17-92-50-96-53-192 52 151 55 100 80 192zM69 17 52-9"/>
        <path d="M206 164c-17-11-40-19-56-19 8 2 33 7 51 21-1-1-3-4-2-5zm-48 72c-1 0-2-1-3-2-11 2-21 2-31-5l1 4 9 2c0 2-1 3-1 4 10-5 19-6 28 2 0-3 3-8 6-9-2 0-9 2-10 2zm149-39c15-5 21-4 34-5a48 48 0 0 0-34 6zm-48 6c-7 7-12 15-8 25 2-7 4-16 8-25zm-107-8c0-7-5-14-10-14s-10 6-10 14 4 14 10 14c5 0 10-7 10-14z"/>
    </g>
</svg>